<svg version="1.1" viewBox="0.0 0.0 1920.0 1080.0" fill="none" stroke="none" stroke-linecap="square" stroke-miterlimit="10" xmlns:xlink="http://www.w3.org/1999/xlink" xmlns="http://www.w3.org/2000/svg"><clipPath id="p.0"><path d="m0 0l1920.0 0l0 1080.0l-1920.0 0l0 -1080.0z" clip-rule="nonzero"/></clipPath><g clip-path="url(#p.0)"><path fill="#000000" fill-opacity="0.0" d="m0 0l1920.0 0l0 1080.0l-1920.0 0z" fill-rule="evenodd"/><path fill="#000000" d="m0 0l1920.0 0l0 1080.0l-1920.0 0z" fill-rule="evenodd"/><path stroke="#000000" stroke-width="1.0" stroke-linejoin="round" stroke-linecap="butt" d="m0 0l1920.0 0l0 1080.0l-1920.0 0z" fill-rule="evenodd"/><path fill="#000000" fill-opacity="0.0" d="m720.0 180.0l480.0 0l0 720.0l-480.0 0z" fill-rule="evenodd"/><path fill="#ffffff" d="m916.8972 620.7969q-10.671875 0 -18.75 -8.203125q-8.0625 -8.203125 -8.0625 -18.625q0 -17.96875 33.328125 -44.265625l62.234375 -46.875q33.59375 -28.90625 33.59375 -52.875q0 -30.203125 -28.375 -55.71875q-27.34375 -24.734375 -58.078125 -24.734375q-16.40625 0 -41.671875 16.796875q-25.25 16.796875 -31.25 16.796875q-10.671875 0 -18.359375 -8.59375q-7.671875 -8.59375 -7.671875 -19.28125q0 -20.5625 39.84375 -40.875q35.671875 -18.234375 59.109375 -18.234375q52.34375 0 95.046875 40.890625q42.71875 40.875 42.71875 92.953125q0 38.03125 -24.484375 67.453125q-14.578125 17.703125 -54.171875 45.828125q-39.84375 28.90625 -55.46875 46.875q-9.109375 10.6875 -19.53125 10.6875zm-14.3125 98.953125q-11.46875 0 -20.71875 -7.6875q-9.234375 -7.671875 -9.234375 -18.609375q0 -16.15625 8.59375 -29.171875q9.640625 -14.578125 24.734375 -14.578125q25.0 0 25.0 30.71875q0 14.328125 -6.765625 25.78125q-8.328125 13.546875 -21.609375 13.546875z" fill-rule="nonzero"/></g></svg>